<svg xmlns="http://www.w3.org/2000/svg" version="1.1" xmlns:xlink="http://www.w3.org/1999/xlink" xmlns:svgjs="http://svgjs.dev/svgjs" width="1000" height="1000" viewBox="0 0 1000 1000"><rect width="1000" height="1000" fill="#ed1703"></rect><g transform="matrix(0.7,0,0,0.7,149.63451159705994,242.7576436027914)"><svg viewBox="0 0 321 236" data-background-color="#ed1703" preserveAspectRatio="xMidYMid meet" height="735" width="1000" xmlns="http://www.w3.org/2000/svg" xmlns:xlink="http://www.w3.org/1999/xlink"><g id="tight-bounds" transform="matrix(1,0,0,1,0.1676025390625,-0.0034976806640543145)"><svg viewBox="0 0 320.664794921875 236.0070037841797" height="236.0070037841797" width="320.664794921875"><g><svg></svg></g><g><svg viewBox="0 0 320.664794921875 236.0070037841797" height="236.0070037841797" width="320.664794921875"><g transform="matrix(1,0,0,1,-37.4276008605957,-11.193008422851562)"><path xmlns="http://www.w3.org/2000/svg" d="M37.428 236.007v-224.814h320.664v207.466l-8.424 0v-199.041h-303.816l0 199.041h-2.11l0 17.348z" fill="#ffffff" fill-rule="nonzero" stroke="none" stroke-width="1" stroke-linecap="butt" stroke-linejoin="miter" stroke-miterlimit="10" stroke-dasharray="" stroke-dashoffset="0" font-family="none" font-weight="none" font-size="none" text-anchor="none" style="mix-blend-mode: normal" data-fill-palette-color="tertiary"></path><g><path xmlns="http://www.w3.org/2000/svg" d="M85.07 240.916c1.054 0.459 1.581 1.081 1.581 1.865v0c0 0.486-0.243 0.959-0.73 1.419-0.486 0.459-1.041 0.784-1.662 0.973v0c-1.486 0.162-2.541 0.257-3.162 0.284v0c-3.622 0.297-6.176 0.581-7.662 0.851v0c-0.243 0.162-0.757 0.243-1.541 0.243v0c-0.757 0-1.424-0.351-2.002-1.054-0.584-0.703-0.876-1.432-0.876-2.189v0c0-0.297 0.041-0.581 0.122-0.851v0l5.189-20.514c0.297-1.189 0.616-1.981 0.957-2.375 0.335-0.389 0.949-0.584 1.84-0.584v0c0.73 0 1.359 0.081 1.889 0.243 0.524 0.162 0.8 0.405 0.827 0.73v0c0 0.757-1.743 8.108-5.229 22.054v0c2.378-0.405 5.405-0.73 9.081-0.973v0zM104.53 237.065c-3.541 0.595-6.365 1.135-8.473 1.621v0c-0.649 1.027-1.068 1.716-1.257 2.068v0c-0.568 1-1.073 1.83-1.516 2.489-0.449 0.665-0.93 1.254-1.444 1.768v0c-0.568 0.568-1.032 0.973-1.394 1.216-0.368 0.243-0.795 0.365-1.281 0.365v0c-0.811 0-1.519-0.184-2.125-0.551-0.611-0.362-0.916-0.732-0.916-1.111v0c0.054-0.054 0.351-0.657 0.892-1.808 0.541-1.146 1.541-2.584 3-4.314v0c0-0.216-0.068-0.486-0.203-0.811-0.135-0.324-0.203-0.514-0.202-0.567v0c0-0.784 1.23-1.73 3.689-2.838v0c1.378-2.054 2.832-4.081 4.362-6.081 1.524-2 3.395-4.365 5.611-7.095v0c0.541-0.676 1.23-1.23 2.067-1.662 0.838-0.432 1.676-0.649 2.514-0.649v0c0.865 0 1.514 0.081 1.946 0.244 0.432 0.162 0.711 0.378 0.835 0.648 0.119 0.27 0.178 0.649 0.178 1.135v0c-0.108 0.811-0.176 1.419-0.202 1.825v0c-0.405 3.27-0.708 6.073-0.908 8.408-0.205 2.341-0.308 4.673-0.309 6.997v0c0 2.135 0.095 4.095 0.284 5.879v0c-0.081 0.649-0.365 1.235-0.851 1.759-0.486 0.53-1.054 0.795-1.703 0.795v0c-1.243 0-2.059-0.311-2.449-0.933-0.395-0.622-0.592-1.676-0.591-3.162v0c0-1.081 0.149-2.959 0.446-5.635zM99.259 234.024c0.486-0.108 1.23-0.23 2.23-0.365v0l3.243-0.486c0.243-3.757 0.527-6.459 0.852-8.108v0c-1.054 1.243-3.162 4.23-6.325 8.959zM135.3 242.862c0.324 0.054 0.703 0.351 1.135 0.892 0.432 0.541 0.649 1.041 0.649 1.5v0c0 0.297-0.23 0.527-0.69 0.689v0c-0.162 0.054-0.424 0.157-0.786 0.308-0.368 0.146-0.7 0.246-0.997 0.3-0.297 0.054-0.635 0.081-1.014 0.081v0c-0.568 0-1-0.068-1.297-0.202v0c-0.757-0.324-1.743-1.081-2.96-2.271-1.216-1.189-2.392-2.549-3.527-4.078-1.135-1.524-1.973-2.949-2.513-4.273v0h-0.243c-0.757 0-1.311-0.014-1.663-0.04v0c-0.811 3-1.486 5.622-2.027 7.864v0c-0.216 0.946-0.546 1.676-0.989 2.19-0.449 0.514-1.173 0.77-2.173 0.77v0c-0.838 0-1.451-0.141-1.84-0.422-0.395-0.286-0.592-0.768-0.592-1.443v0c0-0.297 0.041-0.581 0.121-0.851v0l4.906-18.933c-1.405 0.405-2.473 0.959-3.203 1.662v0c-0.297-0.324-0.532-0.751-0.705-1.281-0.178-0.524-0.268-1.043-0.268-1.556v0c0-0.378 0.116-0.684 0.349-0.917 0.227-0.227 0.543-0.435 0.948-0.624v0c0.135-0.081 0.63-0.324 1.484-0.73 0.849-0.405 1.665-0.716 2.449-0.932v0c0.243-0.541 0.616-0.986 1.119-1.338 0.497-0.351 1.138-0.527 1.921-0.527v0c0.459 0 0.838 0.086 1.136 0.259 0.297 0.178 0.5 0.403 0.608 0.673v0c1-0.324 2.203-0.486 3.608-0.486v0c1.73 0 3.238 0.343 4.524 1.03 1.281 0.692 2.259 1.578 2.935 2.659 0.676 1.081 1.014 2.176 1.014 3.284v0c0 2.459-0.789 4.427-2.368 5.903-1.584 1.47-3.619 2.516-6.105 3.137v0c0.568 0.973 1.324 2.068 2.27 3.284 0.946 1.216 1.846 2.249 2.7 3.098 0.849 0.854 1.408 1.281 1.678 1.281v0zM124.192 223.849c-0.784 3.135-1.432 5.851-1.946 8.148v0c0.324 0.027 0.784 0.041 1.378 0.041v0c1.297 0 2.595-0.197 3.892-0.592 1.297-0.389 2.386-0.976 3.268-1.759 0.876-0.784 1.314-1.757 1.313-2.919v0c0-1.054-0.432-1.9-1.297-2.538-0.865-0.632-2.027-0.949-3.487-0.949v0c-0.811 0-1.851 0.189-3.121 0.568zM157.759 224.7c-0.135-0.432-0.657-0.819-1.565-1.159-0.903-0.335-2.084-0.503-3.543-0.503v0c-1.595 0-2.838 0.446-3.73 1.338-0.892 0.892-1.338 2.014-1.337 3.365v0c0 0.838 0.303 1.478 0.908 1.921 0.611 0.449 1.551 0.943 2.821 1.484v0l1.46 0.608 1.216 0.568c1.459 0.649 2.614 1.235 3.462 1.759 0.854 0.53 1.578 1.254 2.173 2.173 0.595 0.919 0.892 2.095 0.892 3.527v0c0 1.541-0.505 2.87-1.516 3.989-1.016 1.124-2.43 1.978-4.241 2.562-1.811 0.578-3.919 0.868-6.324 0.868v0c-1.784 0-3.454-0.276-5.011-0.827-1.551-0.557-2.778-1.254-3.681-2.092-0.908-0.838-1.362-1.662-1.362-2.473v0c0-0.784 0.338-1.427 1.013-1.93 0.676-0.497 1.635-0.841 2.879-1.029v0c0.135 0.784 0.595 1.486 1.378 2.108 0.784 0.622 1.697 1.114 2.741 1.475 1.038 0.368 1.949 0.551 2.732 0.552v0c1.432 0 2.708-0.284 3.827-0.852 1.124-0.568 1.686-1.351 1.687-2.351v0c0-0.838-0.397-1.535-1.192-2.092-0.8-0.551-1.997-1.151-3.592-1.8v0l-2.149-0.973c-1.757-0.865-3.149-1.838-4.175-2.919-1.027-1.081-1.541-2.514-1.541-4.297v0c0-1.973 0.554-3.576 1.662-4.808 1.108-1.227 2.451-2.111 4.03-2.651 1.584-0.541 3.132-0.811 4.646-0.811v0c2.405 0 4.384 0.311 5.935 0.932 1.557 0.622 2.686 1.405 3.389 2.352 0.703 0.946 1.054 1.919 1.054 2.918v0c0 0.568-0.143 1.257-0.43 2.068-0.281 0.811-0.697 1.514-1.248 2.108-0.557 0.595-1.227 0.892-2.011 0.892v0c-1.351 0-2.027-0.703-2.027-2.108v0c0.054-0.432 0.176-1.143 0.365-2.133 0.189-0.984 0.324-1.57 0.405-1.759zM193.678 234.227c-5.324 0.649-9.095 1.216-11.311 1.703v0l-2.189 8.675c-0.189 0.784-0.468 1.311-0.835 1.581-0.362 0.27-1.084 0.405-2.165 0.406v0c-0.838 0-1.451-0.141-1.84-0.422-0.395-0.286-0.592-0.768-0.592-1.443v0c0-0.297 0.041-0.581 0.121-0.851v0l5.554-21.933c0.297-1.189 0.614-1.981 0.949-2.375 0.341-0.389 0.957-0.584 1.849-0.584v0c0.73 0 1.397 0.081 2.002 0.243 0.611 0.162 0.93 0.405 0.957 0.73v0c0 0.054-0.176 0.784-0.527 2.189v0c-0.541 2.081-1.311 5.243-2.311 9.486v0c4-0.811 7.797-1.365 11.392-1.662v0l1.865-7.54c0.27-1.081 0.643-1.886 1.119-2.416 0.47-0.524 1.111-0.868 1.922-1.03v0c1 0.189 1.657 0.343 1.97 0.462 0.308 0.124 0.516 0.308 0.624 0.551v0c-0.351 1-0.614 1.924-0.786 2.773-0.178 0.854-0.281 1.362-0.308 1.525v0c-0.351 1.892-0.77 3.824-1.257 5.797v0c1.054 0.459 1.581 1.081 1.581 1.865v0c0 0.784-0.838 1.446-2.514 1.986v0c-0.297 1.081-0.851 3.432-1.662 7.054v0c-0.189 1-0.459 2.243-0.811 3.73v0c-0.378 1.486-0.973 2.23-1.783 2.23v0c-2.486 0-3.73-0.581-3.73-1.743v0c0-0.243 0.905-3.905 2.716-10.987zM220.435 237.065c-3.541 0.595-6.365 1.135-8.473 1.621v0c-0.649 1.027-1.068 1.716-1.257 2.068v0c-0.568 1-1.073 1.83-1.516 2.489-0.449 0.665-0.93 1.254-1.443 1.768v0c-0.568 0.568-1.032 0.973-1.395 1.216-0.368 0.243-0.795 0.365-1.281 0.365v0c-0.811 0-1.519-0.184-2.124-0.551-0.611-0.362-0.916-0.732-0.916-1.111v0c0.054-0.054 0.351-0.657 0.891-1.808 0.541-1.146 1.541-2.584 3-4.314v0c0-0.216-0.068-0.486-0.202-0.811-0.135-0.324-0.203-0.514-0.203-0.567v0c0-0.784 1.23-1.73 3.689-2.838v0c1.378-2.054 2.832-4.081 4.362-6.081 1.524-2 3.395-4.365 5.611-7.095v0c0.541-0.676 1.23-1.23 2.068-1.662 0.838-0.432 1.676-0.649 2.513-0.649v0c0.865 0 1.514 0.081 1.946 0.244 0.432 0.162 0.711 0.378 0.835 0.648 0.119 0.27 0.178 0.649 0.179 1.135v0c-0.108 0.811-0.176 1.419-0.203 1.825v0c-0.405 3.27-0.708 6.073-0.908 8.408-0.205 2.341-0.308 4.673-0.308 6.997v0c0 2.135 0.095 4.095 0.284 5.879v0c-0.081 0.649-0.365 1.235-0.852 1.759-0.486 0.53-1.054 0.795-1.702 0.795v0c-1.243 0-2.059-0.311-2.449-0.933-0.395-0.622-0.592-1.676-0.592-3.162v0c0-1.081 0.149-2.959 0.446-5.635zM215.165 234.024c0.486-0.108 1.23-0.23 2.229-0.365v0l3.244-0.486c0.243-3.757 0.527-6.459 0.851-8.108v0c-1.054 1.243-3.162 4.23-6.324 8.959zM254.367 218.984c1 0.189 1.657 0.343 1.971 0.462 0.308 0.124 0.516 0.308 0.624 0.551v0c-0.568 2.189-1.311 5.289-2.23 9.3-0.919 4.016-1.541 6.714-1.865 8.092v0c-0.595 2.757-1.149 5.203-1.662 7.338v0c-0.378 1.486-0.973 2.23-1.784 2.23v0c-2.135 0-3.351-0.432-3.648-1.298v0l-0.081 0.082-6.608-17.676-2.514 10.216c-0.486 1.865-1.014 3.973-1.581 6.324v0c-0.189 0.784-0.478 1.311-0.868 1.581-0.395 0.27-1.132 0.405-2.213 0.406v0c-0.838 0-1.451-0.141-1.841-0.422-0.395-0.286-0.592-0.768-0.592-1.443v0c0-0.297 0.041-0.581 0.122-0.851v0l5.554-21.933c0.297-1.189 0.616-1.981 0.957-2.375 0.335-0.389 0.949-0.584 1.84-0.584v0c0.73 0 1.378 0.081 1.946 0.243 0.568 0.162 0.865 0.405 0.892 0.73v0 0.121l6.527 18.081c1.757-8.486 2.878-13.473 3.365-14.959v0c0.378-1.135 0.892-2.081 1.541-2.838 0.649-0.757 1.365-1.216 2.148-1.378zM240.746 219.916zM245.692 245.214zM277.151 224.7c-0.135-0.432-0.654-0.819-1.557-1.159-0.908-0.335-2.092-0.503-3.551-0.503v0c-1.595 0-2.838 0.446-3.73 1.338-0.892 0.892-1.338 2.014-1.338 3.365v0c0 0.838 0.305 1.478 0.917 1.921 0.605 0.449 1.543 0.943 2.813 1.484v0l1.46 0.608 1.216 0.568c1.459 0.649 2.616 1.235 3.47 1.759 0.849 0.53 1.57 1.254 2.165 2.173 0.595 0.919 0.892 2.095 0.892 3.527v0c0 1.541-0.505 2.87-1.516 3.989-1.016 1.124-2.43 1.978-4.241 2.562-1.811 0.578-3.919 0.868-6.324 0.868v0c-1.784 0-3.451-0.276-5.003-0.827-1.557-0.557-2.786-1.254-3.689-2.092-0.908-0.838-1.362-1.662-1.362-2.473v0c0-0.784 0.338-1.427 1.013-1.93 0.676-0.497 1.635-0.841 2.879-1.029v0c0.135 0.784 0.595 1.486 1.378 2.108 0.784 0.622 1.697 1.114 2.741 1.475 1.038 0.368 1.949 0.551 2.732 0.552v0c1.432 0 2.711-0.284 3.835-0.852 1.119-0.568 1.678-1.351 1.678-2.351v0c0-0.838-0.397-1.535-1.191-2.092-0.8-0.551-1.997-1.151-3.592-1.8v0l-2.149-0.973c-1.757-0.865-3.149-1.838-4.176-2.919-1.027-1.081-1.541-2.514-1.54-4.297v0c0-1.973 0.554-3.576 1.662-4.808 1.108-1.227 2.454-2.111 4.038-2.651 1.578-0.541 3.124-0.811 4.638-0.811v0c2.405 0 4.386 0.311 5.943 0.932 1.551 0.622 2.678 1.405 3.381 2.352 0.703 0.946 1.054 1.919 1.054 2.918v0c0 0.568-0.141 1.257-0.422 2.068-0.286 0.811-0.705 1.514-1.256 2.108-0.557 0.595-1.227 0.892-2.011 0.892v0c-1.351 0-2.027-0.703-2.027-2.108v0c0.054-0.432 0.176-1.143 0.365-2.133 0.189-0.984 0.324-1.57 0.405-1.759zM305.935 218.659c0.973 0.514 1.459 1.162 1.459 1.946v0c0 0.486-0.262 0.938-0.786 1.354-0.53 0.422-1.119 0.714-1.768 0.876v0l-1.783 0.122c-0.811 0.054-1.905 0.127-3.284 0.219-1.378 0.097-3 0.227-4.865 0.389v0l-1.824 7.257c1.703-0.27 3.116-0.486 4.24-0.649 1.119-0.162 2.368-0.297 3.746-0.405v0c1.054 0.459 1.581 1.081 1.581 1.864v0c0 0.486-0.243 0.959-0.73 1.419-0.486 0.459-1.041 0.784-1.662 0.973v0l-2.311 0.244c-2.459 0.27-4.432 0.541-5.919 0.81v0c-0.324 1.486-0.784 3.365-1.378 5.636v0l-0.324 1.256c3.595-0.676 7.068-1.149 10.419-1.419v0c1.054 0.459 1.581 1.081 1.581 1.865v0c0 0.486-0.243 0.959-0.73 1.419-0.486 0.459-1.041 0.784-1.662 0.973v0c-5.135 0.595-8.757 1.095-10.865 1.5v0c-0.243 0.162-0.77 0.243-1.581 0.243v0c-0.757 0-1.424-0.351-2.003-1.054-0.584-0.703-0.876-1.432-0.875-2.189v0c0-0.297 0.041-0.581 0.121-0.851v0l4.622-18.284h-0.122c-0.027-0.297-0.216-0.662-0.567-1.095v0c-0.027-0.054-0.135-0.224-0.325-0.51-0.189-0.281-0.284-0.557-0.283-0.827v0c0.054-0.784 0.568-1.405 1.54-1.865v0c2.027-0.27 4.865-0.532 8.514-0.787 3.649-0.259 6.257-0.403 7.824-0.43zM330.421 218.984c1 0.189 1.657 0.343 1.971 0.462 0.308 0.124 0.516 0.308 0.624 0.551v0c-0.568 2.189-1.311 5.289-2.23 9.3-0.919 4.016-1.541 6.714-1.865 8.092v0c-0.595 2.757-1.149 5.203-1.662 7.338v0c-0.378 1.486-0.973 2.23-1.784 2.23v0c-2.135 0-3.351-0.432-3.648-1.298v0l-0.081 0.082-6.608-17.676-2.514 10.216c-0.486 1.865-1.014 3.973-1.581 6.324v0c-0.189 0.784-0.478 1.311-0.868 1.581-0.395 0.27-1.132 0.405-2.213 0.406v0c-0.838 0-1.451-0.141-1.841-0.422-0.395-0.286-0.592-0.768-0.592-1.443v0c0-0.297 0.041-0.581 0.122-0.851v0l5.554-21.933c0.297-1.189 0.616-1.981 0.957-2.375 0.335-0.389 0.949-0.584 1.84-0.584v0c0.73 0 1.378 0.081 1.946 0.243 0.568 0.162 0.865 0.405 0.892 0.73v0 0.121l6.527 18.081c1.757-8.486 2.878-13.473 3.365-14.959v0c0.378-1.135 0.892-2.081 1.541-2.838 0.649-0.757 1.365-1.216 2.148-1.378zM316.8 219.916zM321.746 245.214z" fill="#ffffff" fill-rule="nonzero" stroke="none" stroke-width="1" stroke-linecap="butt" stroke-linejoin="miter" stroke-miterlimit="10" stroke-dasharray="" stroke-dashoffset="0" font-family="none" font-weight="none" font-size="none" text-anchor="none" style="mix-blend-mode: normal" data-fill-palette-color="secondary"></path></g></g><g transform="matrix(1,0,0,1,25.07644809384891,31.483501892089848)"><svg viewBox="0 0 270.5118987341772 173.04" height="173.04" width="270.5118987341772"><g><svg viewBox="0 0 270.5118987341772 173.04" height="173.04" width="270.5118987341772"><g><svg viewBox="0 0 270.5118987341772 173.04" height="173.04" width="270.5118987341772"><g><svg viewBox="0 0 270.5118987341772 173.04" height="173.04" width="270.5118987341772"><g id="textblocktransform"><svg viewBox="0 0 270.5118987341772 173.04" height="173.04" width="270.5118987341772" id="textblock"><g><svg viewBox="0 0 270.5118987341772 173.04" height="173.04" width="270.5118987341772"><g transform="matrix(1,0,0,1,0,0)"><svg width="270.5118987341772" viewBox="-1.850000023841858 -36.400001525878906 62.75 40.5" height="173.04" data-palette-color="#ffffff"><path d="M20.95-6.35Q22.9-5.5 22.9-4.05L22.9-4.05Q22.9-3.15 22-2.3 21.1-1.45 19.95-1.1L19.95-1.1Q17.2-0.8 16.05-0.75L16.05-0.75Q9.35-0.2 6.6 0.3L6.6 0.3Q6.15 0.6 4.7 0.6L4.7 0.6Q3.3 0.6 2.23-0.7 1.15-2 1.15-3.4L1.15-3.4Q1.15-3.95 1.3-4.45L1.3-4.45 7.7-29.75Q8.25-31.95 8.88-32.68 9.5-33.4 11.15-33.4L11.15-33.4Q12.5-33.4 13.48-33.1 14.45-32.8 14.5-32.2L14.5-32.2Q14.5-30.8 8.05-5L8.05-5Q12.45-5.75 19.25-6.2L19.25-6.2 20.95-6.35ZM47.35-14.6Q37.5-13.4 33.4-12.5L33.4-12.5 30.7-1.8Q30.35-0.35 29.67 0.15 29 0.65 27 0.65L27 0.65Q25.45 0.65 24.72 0.13 24-0.4 24-1.65L24-1.65Q24-2.2 24.15-2.7L24.15-2.7 31-29.75Q31.55-31.95 32.17-32.68 32.8-33.4 34.45-33.4L34.45-33.4Q35.8-33.4 36.92-33.1 38.05-32.8 38.1-32.2L38.1-32.2Q38.1-32.1 37.45-29.5L37.45-29.5Q36.45-25.65 34.6-17.8L34.6-17.8Q42-19.3 48.65-19.85L48.65-19.85 50.95-29.15Q51.45-31.15 52.32-32.13 53.2-33.1 54.7-33.4L54.7-33.4Q56.55-33.05 57.12-32.83 57.7-32.6 57.9-32.15L57.9-32.15Q57.25-30.3 56.92-28.73 56.6-27.15 56.55-26.85L56.55-26.85Q55.9-23.35 55-19.7L55-19.7Q56.95-18.85 56.95-17.4L56.95-17.4Q56.95-15.95 53.85-14.95L53.85-14.95Q53.3-12.95 51.8-6.25L51.8-6.25Q51.45-4.4 50.8-1.65L50.8-1.65Q50.1 1.1 48.6 1.1L48.6 1.1Q44 1.1 44-1.05L44-1.05Q44-1.5 47.35-14.6L47.35-14.6Z" opacity="1" transform="matrix(1,0,0,1,0,0)" fill="#ffffff" class="wordmark-text-0" data-fill-palette-color="primary" id="text-0"></path></svg></g></svg></g></svg></g></svg></g><g></g></svg></g></svg></g></svg></g></svg></g><defs></defs></svg><rect width="320.664794921875" height="236.0070037841797" fill="none" stroke="none" visibility="hidden"></rect></g></svg></g></svg>